<svg width="25" height="25" viewBox="0 0 25 25" fill="none" xmlns="http://www.w3.org/2000/svg">
    <g opacity="0.6">
        <path fill-rule="evenodd" clip-rule="evenodd" d="M9.22529 5.01367H14.8408C17.1668 5.01367 19.0524 6.89928 19.0524 9.22529V14.8408C19.0524 17.1668 17.1668 19.0524 14.8408 19.0524H9.22529C6.89928 19.0524 5.01367 17.1668 5.01367 14.8408V9.22529C5.01367 6.89928 6.89928 5.01367 9.22529 5.01367ZM9.22529 6.41755C7.67462 6.41755 6.41755 7.67462 6.41755 9.22529V14.8408C6.41755 16.3915 7.67462 17.6485 9.22529 17.6485H14.8408C16.3915 17.6485 17.6485 16.3915 17.6485 14.8408V9.22529C17.6485 7.67462 16.3915 6.41755 14.8408 6.41755H9.22529ZM12.033 15.5427C10.0947 15.5427 8.52336 13.9714 8.52336 12.033C8.52336 10.0947 10.0947 8.52336 12.033 8.52336C13.9714 8.52336 15.5427 10.0947 15.5427 12.033C15.5427 13.9714 13.9714 15.5427 12.033 15.5427ZM12.033 14.1389C13.196 14.1389 14.1389 13.196 14.1389 12.033C14.1389 10.87 13.196 9.92723 12.033 9.92723C10.87 9.92723 9.92723 10.87 9.92723 12.033C9.92723 13.196 10.87 14.1389 12.033 14.1389ZM15.5427 9.22529C15.1551 9.22529 14.8408 8.91103 14.8408 8.52336C14.8408 8.13569 15.1551 7.82142 15.5427 7.82142C15.9304 7.82142 16.2447 8.13569 16.2447 8.52336C16.2447 8.91103 15.9304 9.22529 15.5427 9.22529Z" fill="white"/>
        <path d="M23.601 11.9885C23.601 18.4019 18.4019 23.601 11.9885 23.601C5.57513 23.601 0.376038 18.4019 0.376038 11.9885C0.376038 5.57513 5.57513 0.376038 11.9885 0.376038C18.4019 0.376038 23.601 5.57513 23.601 11.9885Z" stroke="white" stroke-width="0.752075"/>
    </g>
</svg>
