<svg width="25" height="25" viewBox="0 0 25 25" fill="none" xmlns="http://www.w3.org/2000/svg">
    <g opacity="0.6">
        <g clip-path="url(#clip0_1401_28982)">
            <mask id="path-2-inside-1_1401_28982" fill="white">
                <path d="M13.2239 13.2259C12.2764 14.2036 12.2075 15.4224 12.1256 18.0928C14.6151 18.0928 16.3336 18.0842 17.2208 17.2228C18.0822 16.3355 18.0908 14.5352 18.0908 12.1276C15.4205 12.2137 14.2016 12.2783 13.2239 13.2259V13.2259ZM6.03125 12.1276C6.03125 14.5352 6.03986 16.3355 6.90126 17.2228C7.7885 18.0842 9.50699 18.0928 11.9964 18.0928C11.9103 15.4224 11.8457 14.2036 10.8981 13.2259C9.92046 12.2783 8.70158 12.2094 6.03125 12.1276V12.1276ZM11.9964 6.0332C9.5113 6.0332 7.7885 6.04182 6.90126 6.90321C6.03986 7.79045 6.03125 9.59078 6.03125 11.9984C8.70158 11.9122 9.92046 11.8476 10.8981 10.9001C11.8457 9.92241 11.9146 8.70354 11.9964 6.0332V6.0332ZM13.2239 10.9001C12.2764 9.92241 12.2075 8.70354 12.1256 6.0332C14.6151 6.0332 16.3336 6.04182 17.2208 6.90321C18.0822 7.79045 18.0908 9.59078 18.0908 11.9984C15.4205 11.9122 14.2016 11.8476 13.2239 10.9001"/>
            </mask>
            <path d="M12.1256 18.0928L11.3722 18.0697L11.3484 18.8466H12.1256V18.0928ZM17.2208 17.2228L17.7459 17.7636L17.7539 17.7558L17.7616 17.7478L17.2208 17.2228ZM18.0908 12.1276H18.8446V11.3491L18.0665 11.3742L18.0908 12.1276ZM6.90126 17.2228L6.36044 17.7478L6.3682 17.7558L6.37619 17.7636L6.90126 17.2228ZM11.9964 18.0928V18.8466H12.7749L12.7498 18.0685L11.9964 18.0928ZM10.8981 13.2259L11.4394 12.7013L11.4312 12.6928L11.4227 12.6846L10.8981 13.2259ZM6.90126 6.90321L6.37619 6.36239L6.3682 6.37015L6.36044 6.37814L6.90126 6.90321ZM6.03125 11.9984H5.27747V12.7769L6.05555 12.7518L6.03125 11.9984ZM10.8981 10.9001L11.4227 11.4414L11.4312 11.4332L11.4394 11.4247L10.8981 10.9001ZM12.1256 6.0332V5.27942H11.3484L11.3722 6.05629L12.1256 6.0332ZM17.2208 6.90321L17.7616 6.37814L17.7539 6.37015L17.7459 6.36239L17.2208 6.90321ZM18.0908 11.9984L18.0665 12.7518L18.8446 12.7769V11.9984H18.0908ZM12.6826 12.7013C12.0847 13.3182 11.7768 14.0121 11.6098 14.8826C11.4503 15.7146 11.4126 16.7532 11.3722 18.0697L12.8791 18.1159C12.9206 16.762 12.9582 15.856 13.0904 15.1666C13.2153 14.5156 13.4156 14.1112 13.7652 13.7505L12.6826 12.7013ZM12.1256 18.8466C13.3547 18.8466 14.4605 18.8457 15.3705 18.7284C16.2761 18.6116 17.1263 18.3652 17.7459 17.7636L16.6957 16.6819C16.4281 16.9418 15.9754 17.1303 15.1776 17.2332C14.3842 17.3355 13.386 17.339 12.1256 17.339V18.8466ZM17.7616 17.7478C18.3665 17.1248 18.6108 16.2493 18.7266 15.3406C18.8437 14.4213 18.8446 13.3167 18.8446 12.1276H17.337C17.337 13.3461 17.3336 14.3455 17.2311 15.15C17.1272 15.9652 16.9365 16.4335 16.68 16.6977L17.7616 17.7478ZM18.0665 11.3742C16.7509 11.4166 15.7124 11.4545 14.8812 11.6133C14.0112 11.7796 13.3168 12.0862 12.6993 12.6846L13.7485 13.7672C14.1087 13.418 14.5126 13.2186 15.1641 13.0941C15.8543 12.9622 16.7604 12.9247 18.1151 12.881L18.0665 11.3742ZM5.27747 12.1276C5.27747 13.3167 5.27836 14.4213 5.39549 15.3406C5.51129 16.2493 5.75558 17.1248 6.36044 17.7478L7.44209 16.6977C7.18555 16.4335 6.99483 15.9652 6.89097 15.15C6.78845 14.3455 6.78503 13.3461 6.78503 12.1276H5.27747ZM6.37619 17.7636C6.99582 18.3652 7.84598 18.6116 8.75162 18.7284C9.66158 18.8457 10.7674 18.8466 11.9964 18.8466V17.339C10.736 17.339 9.73788 17.3355 8.94442 17.2332C8.14665 17.1303 7.69394 16.9418 7.42633 16.6819L6.37619 17.7636ZM12.7498 18.0685C12.7074 16.7528 12.6695 15.7144 12.5107 14.8831C12.3445 14.0131 12.0379 13.3187 11.4394 12.7013L10.3569 13.7505C10.706 14.1107 10.9054 14.5146 11.0299 15.1661C11.1618 15.8562 11.1993 16.7624 11.243 18.1171L12.7498 18.0685ZM11.4227 12.6846C10.8058 12.0867 10.1119 11.7787 9.24142 11.6118C8.40942 11.4522 7.37086 11.4145 6.05434 11.3742L6.00816 12.881C7.36198 12.9225 8.26802 12.9602 8.95746 13.0924C9.60845 13.2172 10.0128 13.4175 10.3736 13.7672L11.4227 12.6846ZM11.9964 5.27942C10.7695 5.27942 9.66374 5.28025 8.75329 5.39758C7.84749 5.51431 6.996 5.76063 6.37619 6.36239L7.42633 7.44404C7.69376 7.1844 8.14729 6.99571 8.94598 6.89279C9.74002 6.79046 10.7382 6.78699 11.9964 6.78699V5.27942ZM6.36044 6.37814C5.75558 7.00115 5.51129 7.87663 5.39549 8.78538C5.27836 9.70468 5.27747 10.8093 5.27747 11.9984H6.78503C6.78503 10.7799 6.78845 9.78052 6.89097 8.97594C6.99483 8.16082 7.18555 7.69252 7.44209 7.42829L6.36044 6.37814ZM6.05555 12.7518C7.3712 12.7093 8.40963 12.6715 9.24092 12.5127C10.1109 12.3464 10.8053 12.0398 11.4227 11.4414L10.3736 10.3588C10.0133 10.7079 9.60945 10.9074 8.95797 11.0319C8.26781 11.1638 7.36163 11.2013 6.00695 11.245L6.05555 12.7518ZM11.4394 11.4247C12.0373 10.8078 12.3453 10.1138 12.5122 9.24338C12.6718 8.41137 12.7095 7.37281 12.7499 6.05629L11.243 6.01011C11.2015 7.36393 11.1639 8.26997 11.0316 8.95941C10.9068 9.6104 10.7065 10.0148 10.3569 10.3755L11.4394 11.4247ZM13.7652 10.3755C13.4156 10.0148 13.2153 9.6104 13.0904 8.95941C12.9582 8.26997 12.9206 7.36393 12.8791 6.01011L11.3722 6.05629C11.4126 7.37281 11.4503 8.41137 11.6098 9.24338C11.7768 10.1138 12.0847 10.8078 12.6826 11.4247L13.7652 10.3755ZM12.1256 6.78699C13.386 6.78699 14.3842 6.79046 15.1776 6.89278C15.9754 6.99565 16.4281 7.18422 16.6957 7.44404L17.7459 6.36239C17.1263 5.76081 16.2761 5.51437 15.3705 5.39759C14.4605 5.28025 13.3547 5.27942 12.1256 5.27942V6.78699ZM16.68 7.42829C16.9365 7.69252 17.1272 8.16082 17.2311 8.97594C17.3336 9.78052 17.337 10.7799 17.337 11.9984H18.8446C18.8446 10.8093 18.8437 9.70468 18.7266 8.78538C18.6108 7.87663 18.3665 7.00115 17.7616 6.37814L16.68 7.42829ZM18.1151 11.245C16.7604 11.2013 15.8543 11.1638 15.1641 11.0319C14.5126 10.9074 14.1087 10.7079 13.7485 10.3588L12.6993 11.4414C13.3168 12.0398 14.0112 12.3464 14.8812 12.5127C15.7124 12.6715 16.7509 12.7093 18.0665 12.7518L18.1151 11.245Z" fill="white" mask="url(#path-2-inside-1_1401_28982)"/>
            <mask id="path-4-inside-2_1401_28982" fill="white">
                <path d="M18.0908 12.1276V11.9984C15.4205 11.9122 14.2016 11.8476 13.2239 10.9001C12.2764 9.92241 12.2075 8.70354 12.1256 6.0332H11.9964C11.9103 8.70354 11.8457 9.92241 10.8981 10.9001C9.92046 11.8476 8.70158 11.9166 6.03125 11.9984V12.1276C8.70158 12.2137 9.92046 12.2783 10.8981 13.2259C11.8457 14.2036 11.9146 15.4224 11.9964 18.0928H12.1256C12.2118 15.4224 12.2764 14.2036 13.2239 13.2259C14.2016 12.2783 15.4205 12.2094 18.0908 12.1276"/>
            </mask>
            <path d="M18.0908 11.9984H18.8446V11.2685L18.1151 11.245L18.0908 11.9984ZM13.2239 10.9001L12.6826 11.4247L12.6909 11.4332L12.6993 11.4414L13.2239 10.9001ZM12.1256 6.0332L12.8791 6.01011L12.8567 5.27942H12.1256V6.0332ZM11.9964 6.0332V5.27942H11.2666L11.243 6.0089L11.9964 6.0332ZM10.8981 10.9001L11.4227 11.4414L11.4312 11.4332L11.4394 11.4247L10.8981 10.9001ZM6.03125 11.9984L6.00816 11.245L5.27747 11.2673V11.9984H6.03125ZM6.03125 12.1276H5.27747V12.8575L6.00695 12.881L6.03125 12.1276ZM10.8981 13.2259L11.4394 12.7013L11.4312 12.6928L11.4227 12.6846L10.8981 13.2259ZM11.9964 18.0928L11.243 18.1159L11.2654 18.8466H11.9964V18.0928ZM12.1256 18.0928V18.8466H12.8555L12.879 18.1171L12.1256 18.0928ZM13.2239 13.2259L12.6993 12.6846L12.6909 12.6928L12.6826 12.7013L13.2239 13.2259ZM18.8446 12.1276V11.9984H17.337V12.1276H18.8446ZM18.1151 11.245C16.7604 11.2013 15.8543 11.1638 15.1641 11.0319C14.5126 10.9074 14.1087 10.7079 13.7485 10.3588L12.6993 11.4414C13.3168 12.0398 14.0112 12.3464 14.8812 12.5127C15.7124 12.6715 16.7509 12.7093 18.0665 12.7518L18.1151 11.245ZM13.7652 10.3755C13.4156 10.0148 13.2153 9.6104 13.0904 8.95941C12.9582 8.26997 12.9206 7.36393 12.8791 6.01011L11.3722 6.05629C11.4126 7.37281 11.4503 8.41137 11.6098 9.24338C11.7768 10.1138 12.0847 10.8078 12.6826 11.4247L13.7652 10.3755ZM12.1256 5.27942H11.9964V6.78699H12.1256V5.27942ZM11.243 6.0089C11.1993 7.36358 11.1618 8.26976 11.0299 8.95992C10.9054 9.6114 10.706 10.0153 10.3569 10.3755L11.4394 11.4247C12.0379 10.8072 12.3445 10.1128 12.5107 9.24287C12.6695 8.41159 12.7074 7.37316 12.7498 6.05751L11.243 6.0089ZM10.3736 10.3588C10.0128 10.7084 9.60845 10.9087 8.95746 11.0336C8.26802 11.1658 7.36198 11.2035 6.00816 11.245L6.05434 12.7518C7.37086 12.7115 8.40942 12.6737 9.24142 12.5142C10.1119 12.3472 10.8058 12.0393 11.4227 11.4414L10.3736 10.3588ZM5.27747 11.9984V12.1276H6.78503V11.9984H5.27747ZM6.00695 12.881C7.36163 12.9247 8.26781 12.9622 8.95797 13.0941C9.60945 13.2186 10.0133 13.418 10.3736 13.7672L11.4227 12.6846C10.8053 12.0862 10.1109 11.7796 9.24092 11.6133C8.40963 11.4545 7.3712 11.4166 6.05555 11.3742L6.00695 12.881ZM10.3569 13.7505C10.7065 14.1112 10.9068 14.5156 11.0316 15.1666C11.1639 15.856 11.2015 16.762 11.243 18.1159L12.7499 18.0697C12.7095 16.7532 12.6718 15.7146 12.5122 14.8826C12.3453 14.0121 12.0373 13.3182 11.4394 12.7013L10.3569 13.7505ZM11.9964 18.8466H12.1256V17.339H11.9964V18.8466ZM12.879 18.1171C12.9227 16.7624 12.9603 15.8562 13.0921 15.1661C13.2166 14.5146 13.4161 14.1107 13.7652 13.7505L12.6826 12.7013C12.0842 13.3187 11.7776 14.0131 11.6114 14.8831C11.4525 15.7144 11.4147 16.7528 11.3722 18.0685L12.879 18.1171ZM13.7485 13.7672C14.1093 13.4175 14.5136 13.2172 15.1646 13.0924C15.854 12.9602 16.7601 12.9225 18.1139 12.881L18.0677 11.3742C16.7512 11.4145 15.7127 11.4522 14.8806 11.6118C14.0102 11.7787 13.3163 12.0867 12.6993 12.6846L13.7485 13.7672Z" fill="white" mask="url(#path-4-inside-2_1401_28982)"/>
        </g>
        <rect x="0.376892" y="0.376892" width="23.3673" height="23.3673" rx="11.6837" stroke="white" stroke-width="0.753784"/>
    </g>
    <defs>
        <clipPath id="clip0_1401_28982">
            <rect width="12.0596" height="12.0596" fill="white" transform="translate(6.03125 6.0332)"/>
        </clipPath>
    </defs>
</svg>
