<svg width="24" height="24" viewBox="0 0 24 24" fill="none" xmlns="http://www.w3.org/2000/svg">
    <g opacity="0.6">
        <path fill-rule="evenodd" clip-rule="evenodd" d="M12 23.2472C18.2117 23.2472 23.2472 18.2117 23.2472 12C23.2472 5.78834 18.2117 0.752795 12 0.752795C5.78834 0.752795 0.752795 5.78834 0.752795 12C0.752795 18.2117 5.78834 23.2472 12 23.2472ZM24 12C24 18.6274 18.6274 24 12 24C5.37258 24 0 18.6274 0 12C0 5.37258 5.37258 0 12 0C18.6274 0 24 5.37258 24 12Z" fill="white"/>
        <path fill-rule="evenodd" clip-rule="evenodd" d="M11.5452 17.262H12.487C12.487 17.262 12.7715 17.2308 12.9168 17.0742C13.0505 16.9304 13.0462 16.6605 13.0462 16.6605C13.0462 16.6605 13.0278 15.3967 13.6144 15.2106C14.1926 15.0273 14.935 16.432 15.722 16.9721C16.3171 17.3809 16.7693 17.2913 16.7693 17.2913L18.8736 17.262C18.8736 17.262 19.9744 17.1942 19.4524 16.3287C19.4096 16.2579 19.1485 15.6885 17.8879 14.5184C16.5685 13.2937 16.7452 13.4918 18.3345 11.3734C19.3025 10.0833 19.6894 9.29573 19.5686 8.95839C19.4533 8.63709 18.7414 8.72202 18.7414 8.72202L16.3721 8.73678C16.3721 8.73678 16.1965 8.71282 16.0662 8.79068C15.9389 8.86705 15.857 9.04502 15.857 9.04502C15.857 9.04502 15.482 10.0433 14.9819 10.8924C13.9269 12.6839 13.505 12.7784 13.3326 12.6672C12.9315 12.4079 13.0317 11.6256 13.0317 11.0699C13.0317 9.3338 13.295 8.60993 12.5189 8.42254C12.2614 8.36029 12.0718 8.31922 11.4132 8.31259C10.5678 8.30382 9.85229 8.31516 9.44715 8.51367C9.17762 8.64565 8.9697 8.93978 9.09633 8.95668C9.25291 8.97764 9.60758 9.0523 9.79561 9.30835C10.0384 9.63863 10.0298 10.3805 10.0298 10.3805C10.0298 10.3805 10.1693 12.4242 9.70405 12.6781C9.38468 12.8522 8.94659 12.4967 8.00603 10.8714C7.52408 10.0389 7.16022 9.11861 7.16022 9.11861C7.16022 9.11861 7.09006 8.94662 6.96492 8.85464C6.81304 8.74319 6.60084 8.70768 6.60084 8.70768L4.34942 8.72244C4.34942 8.72244 4.01144 8.73186 3.88738 8.87881C3.777 9.00951 3.87861 9.2799 3.87861 9.2799C3.87861 9.2799 5.64124 13.4037 7.63703 15.4818C9.46704 17.3871 11.5452 17.262 11.5452 17.262Z" fill="white"/>
        <rect x="0.376398" y="0.376398" width="23.2472" height="23.2472" rx="11.6236" stroke="white" stroke-width="0.752795"/>
    </g>
</svg>
