<svg width="80" height="80" viewBox="0 0 80 80" fill="none" xmlns="http://www.w3.org/2000/svg">
<path d="M80 40C80 62.0914 62.0914 80 40 80C17.9086 80 0 62.0914 0 40C0 17.9086 17.9086 0 40 0C62.0914 0 80 17.9086 80 40Z" fill="#FFB74D"/>
<path fill-rule="evenodd" clip-rule="evenodd" d="M54.1303 51.8572C54.1303 50.6928 54.1521 49.8481 55.15 48.8967C57.4651 46.6894 60.9126 48.6366 60.9126 51.0342C60.9126 52.4482 60.9032 52.9421 59.8914 53.9933C59.2843 54.6242 58.5081 54.9656 57.6009 55.0163C55.8188 55.1159 54.1303 53.3653 54.1303 51.8573L54.1303 51.8572ZM14.9326 47.2114V46.8559C15.0077 46.5019 15.3186 46.1985 15.93 46.1985H23.211C24.6794 46.1985 24.4155 47.9476 23.3108 47.9476H20.0194V49.6967H24.6074C24.71 49.2424 25.0678 48.6252 25.3353 48.287C27.2448 45.8729 30.3599 45.5444 32.5041 47.3125C33.1019 47.8056 33.6024 48.4158 33.9291 49.1348C34.0611 49.425 34.0505 49.6967 34.3819 49.6967H50.7392V43.5236C50.7392 42.3247 52.335 42.6157 52.335 43.3178V49.6967C52.9322 49.6829 52.7422 49.657 52.9388 49.1878C54.3039 45.9304 59.3009 44.9055 61.6531 48.4184C62.7151 50.0046 61.5072 49.6967 64.4035 49.6967V46.1986C62.2063 46.1986 60.9126 45.537 60.9126 42.9063C60.9126 40.5238 61.1293 40.9515 64.204 40.9515C63.9767 39.9449 62.9142 39.0996 61.7106 39.0996H52.335V40.2313C52.335 40.9995 50.7392 41.1927 50.7392 40.0255V25.0043H20.0194V39.5111C20.0194 41.4547 18.3238 41.0176 18.3238 40.0255V24.9014C18.3238 24.2734 18.9578 23.3581 19.9196 23.3581H50.9387C51.5615 23.3581 52.335 24.156 52.335 24.7985V26.8562H58.3194C59.5013 26.8562 60.3694 27.4018 60.9382 28.0644C61.6917 28.9422 62.3956 31.8899 61.1114 32.0006L62.4087 37.4533C63.639 37.7489 64.1055 38.005 64.8795 38.8142C65.397 39.3552 65.9993 40.4328 65.9993 41.4658V50.6226C65.9993 51.7789 64.2992 51.4457 62.6082 51.4457C62.6082 52.3411 62.4647 52.9374 62.1774 53.5734C59.819 58.7959 52.4347 57.0387 52.4347 51.4457H34.4816C34.4816 54.212 32.2454 56.6928 29.5944 56.6928C26.5959 56.6928 24.3082 54.584 24.3082 51.4457C18.4575 51.4457 18.3238 51.9725 18.3238 47.9476H15.8303C15.3364 47.9476 15.0107 47.5979 14.9327 47.2113L14.9326 47.2114ZM29.1954 47.9476C33.3888 47.9476 33.9564 53.3242 30.6928 54.7394C27.9097 55.9462 25.0319 52.9777 26.2019 50.1068C26.6345 49.0451 27.7398 47.9476 29.1954 47.9476V47.9476ZM62.6081 43.5236V42.5976H64.4034V44.4496H63.5058C63.0128 44.4496 62.6081 44.0321 62.6081 43.5236ZM52.335 37.1447V32.1034H59.217C59.5923 32.1034 59.5511 32.5518 59.7157 33.2351L60.7131 37.4534L53.1271 37.4593C52.7036 37.4663 52.335 37.5611 52.335 37.1447V37.1447ZM52.335 28.6053H58.6186C58.9842 28.6053 59.4938 28.9207 59.6799 29.1566C59.9234 29.4652 60.1037 29.8478 60.1147 30.3543H52.335V28.6053V28.6053Z" fill="#1D1D1D"/>
<path fill-rule="evenodd" clip-rule="evenodd" d="M34.4812 38.7909C34.0559 38.4972 32.0593 36.3443 31.4142 35.6787C30.9921 35.2431 30.7598 34.7785 30.0927 34.7785C29.7629 34.7785 29.3945 35.2575 29.3945 35.6016C29.3945 36.2144 31.2839 37.9106 31.7633 38.4051C32.2033 38.859 32.5701 39.2374 33.0101 39.6912C34.7741 41.5109 34.4739 41.2163 36.8002 38.8167L41.9866 33.4667C42.8609 32.5649 42.9591 32.7596 42.9591 31.8977C42.9591 31.5643 42.5257 31.2804 42.1612 31.2804C41.654 31.2804 41.374 31.7311 41.0889 32.0262C40.1667 32.981 34.9103 38.4946 34.4812 38.791L34.4812 38.7909Z" fill="#1D1D1D"/>
<path fill-rule="evenodd" clip-rule="evenodd" d="M35.3789 46.9187C35.3789 47.5284 35.7408 47.9476 36.2765 47.9476H48.0458C49.2428 47.9476 49.2646 46.1985 48.0458 46.1985H36.2765C35.8652 46.1985 35.3789 46.5443 35.3789 46.9187V46.9187Z" fill="#1D1D1D"/>
<path fill-rule="evenodd" clip-rule="evenodd" d="M16.6289 43.5235C16.6289 44.2573 17.2083 44.4495 17.9255 44.4495H27.2013C29.0581 44.4495 28.6948 42.7004 27.7 42.7004H17.4268C16.9444 42.7004 16.6289 43.0258 16.6289 43.5235Z" fill="#1D1D1D"/>
<path fill-rule="evenodd" clip-rule="evenodd" d="M55.8262 51.4457C55.8262 53.7903 59.2173 53.6339 59.2173 51.5486C59.2173 49.0694 55.8262 49.2356 55.8262 51.4457Z" fill="#1D1D1D"/>
<path fill-rule="evenodd" clip-rule="evenodd" d="M27.7002 51.4457C27.7002 52.9872 29.5012 53.7766 30.5243 52.7126C31.2462 51.9618 31.2377 50.9802 30.6226 50.2831C30.4582 50.0968 30.3145 49.9949 30.0973 49.899C28.6342 49.2529 27.7002 50.5358 27.7002 51.4457H27.7002Z" fill="#1D1D1D"/>
</svg>
