<svg width="193" height="40" viewBox="0 0 193 40" fill="none" xmlns="http://www.w3.org/2000/svg">
    <g clip-path="url(#clip0_522_133030)">
        <path d="M142.527 10.4218C142.986 9.99107 143.218 9.38581 143.218 8.60565C143.218 7.82582 142.986 7.22056 142.527 6.78954C142.063 6.36048 141.371 6.14563 140.448 6.14563H137.963V11.0663H140.448C141.371 11.0663 142.063 10.8515 142.527 10.4221V10.4218ZM145.756 1.64612C147.143 2.28479 148.209 3.20579 148.961 4.4055C149.71 5.60522 150.088 7.00603 150.088 8.60565C150.088 10.2076 149.71 11.6064 148.961 12.8061C148.209 14.0068 147.143 14.9272 145.756 15.5685C144.373 16.2084 142.744 16.5284 140.88 16.5284H137.963V21.6889H131.155V0.684845H140.88C142.744 0.684845 144.373 1.00451 145.756 1.64612Z" fill="#4B4D4D"/>
        <path d="M165.484 15.7928C166.165 15.3638 166.709 14.7526 167.113 13.9629C167.515 13.1733 167.718 12.2464 167.718 11.1865C167.718 10.127 167.515 9.20142 167.113 8.41078C166.709 7.6221 166.164 7.0116 165.484 6.58189C164.799 6.1512 164.033 5.93634 163.188 5.93634C162.339 5.93634 161.577 6.1512 160.892 6.58189C160.211 7.0116 159.667 7.6221 159.263 8.41078C158.861 9.20174 158.657 10.1273 158.657 11.1865C158.657 12.2464 158.861 13.1733 159.263 13.9629C159.667 14.7526 160.212 15.3638 160.892 15.7928C161.577 16.2235 162.339 16.4384 163.188 16.4384C164.033 16.4384 164.799 16.2235 165.484 15.7928ZM157.328 20.758C155.599 19.8187 154.241 18.5139 153.26 16.8428C152.28 15.1735 151.788 13.2866 151.788 11.1865C151.788 9.08645 152.28 7.20123 153.26 5.53021C154.241 3.86083 155.599 2.55467 157.328 1.61403C159.06 0.67502 161.013 0.205353 163.188 0.205353C165.362 0.205353 167.316 0.67502 169.045 1.61403C170.777 2.555 172.135 3.86083 173.116 5.53021C174.096 7.20123 174.588 9.08645 174.588 11.1865C174.588 13.2866 174.096 15.1735 173.116 16.8428C172.135 18.5139 170.777 19.8187 169.045 20.758C167.316 21.7 165.363 22.1697 163.188 22.1697C161.013 22.1697 159.06 21.7 157.328 20.758Z" fill="#4B4D4D"/>
        <path d="M177.068 0.684525H183.881V16.1983H193V21.6899H177.068V0.684525Z" fill="#4B4D4D"/>
        <path d="M62.1657 6.79019C61.7023 6.36048 61.0109 6.14595 60.0873 6.14595H57.6025V11.0667H60.0873C61.0106 11.0667 61.7023 10.8518 62.1657 10.4227C62.6253 9.99205 62.8572 9.38646 62.8572 8.60663C62.8572 7.8268 62.6253 7.22121 62.1657 6.79052V6.79019ZM59.4491 16.4072H57.6025V21.6892H50.7939V0.683533H60.5189C62.3828 0.683533 64.0123 1.00516 65.3955 1.64514C66.7825 2.28512 67.8481 3.2048 68.5998 4.40452C69.3482 5.60587 69.7269 7.00603 69.7269 8.6063C69.7269 10.1064 69.398 11.4171 68.7421 12.5362C68.0907 13.657 67.146 14.5476 65.9149 15.2072L70.1575 21.6889H62.8852L59.4491 16.4069V16.4072Z" fill="#4B4D4D"/>
        <path d="M18.0381 21.6892L17.9767 12.1167L13.5934 19.7981H10.5914L6.20394 12.4478V21.6892H0.000488281V0.683533H5.59786L12.1784 11.8773L18.5831 0.683533H24.183L24.2407 21.6892H18.0381Z" fill="#4B4D4D"/>
        <path d="M39.4227 12.9272L37.4586 7.64525L35.4974 12.9272H39.4227ZM41.2976 18.0284H33.619L32.2654 21.6894H25.3384L34.1684 0.684082H40.8661L49.697 21.6894H42.6528L41.2976 18.0284Z" fill="#4B4D4D"/>
        <path d="M79.5052 14.7274L77.973 16.498V21.6885H71.2778V0.684525H77.973V8.30663L84.6137 0.684525H92.0283L83.9474 9.92754L92.4347 21.6885H84.5523L79.5052 14.7274Z" fill="#4B4D4D"/>
        <path d="M117.331 6.17609H111.414V0.684845H130.057V6.17609H124.14V21.6889H117.331V6.17609Z" fill="#4B4D4D"/>
        <path d="M93.54 5.2908L109.894 6.6772L110.309 1.38706L93.9552 0L93.54 5.2908Z" fill="#E4A723"/>
        <path d="M93.9433 14.4962L110.302 13.169L109.905 7.87692L93.5464 9.20404L93.9433 14.4962Z" fill="#E4A723"/>
        <path d="M93.583 21.2212L109.978 22.1481L110.255 16.8478L93.8602 15.9209L93.583 21.2212Z" fill="#E4A723"/>
        <path d="M6.88353 37.801V33.7885L4.92135 37.1663H4.3326L2.40286 33.7771V37.801H1.16016V31.7484H2.58809L4.65926 35.5339L6.82872 31.7484H8.10419L8.11521 37.801H6.88322H6.88353ZM15.6987 34.8088C15.6987 34.907 15.6912 35.0469 15.6767 35.228H11.109C11.1891 35.6737 11.3979 36.0271 11.7359 36.2879C12.0736 36.5486 12.4935 36.6786 12.9947 36.6786C13.6345 36.6786 14.1615 36.4595 14.5757 36.0213L15.3059 36.8941C15.0444 37.219 14.7137 37.4646 14.3143 37.6307C13.9145 37.7968 13.4637 37.8799 12.9626 37.8799C12.3228 37.8799 11.7595 37.7476 11.2729 37.4833C10.7862 37.2187 10.4097 36.8502 10.1442 36.3783C9.87894 35.906 9.74632 35.3711 9.74632 34.774C9.74632 34.1845 9.87516 33.6542 10.1335 33.1816C10.3915 32.7093 10.749 32.3409 11.2073 32.0766C11.665 31.8119 12.181 31.6796 12.755 31.6796C13.322 31.6796 13.8288 31.81 14.2758 32.0707C14.7225 32.3314 15.0715 32.6979 15.3223 33.1702C15.573 33.6425 15.6984 34.1884 15.6984 34.8081L15.6987 34.8088ZM12.755 32.8138C12.319 32.8138 11.9501 32.9478 11.6487 33.2163C11.3469 33.4846 11.1632 33.8416 11.098 34.2873H14.4012C14.3429 33.8491 14.1646 33.4941 13.8666 33.2219C13.5686 32.9497 13.1982 32.8138 12.7546 32.8138H12.755ZM21.9626 32.9497H18.8557V37.801H17.493V31.7484H21.9626V32.9497ZM25.4252 31.6803C26.2827 31.6803 26.9385 31.8938 27.3924 32.3209C27.8467 32.7477 28.0738 33.3922 28.0738 34.2536V37.801H26.7879V37.0644C26.6207 37.3287 26.3828 37.5308 26.0738 37.6707C25.7648 37.8105 25.3924 37.8803 24.9562 37.8803C24.5202 37.8803 24.1387 37.803 23.8117 37.6477C23.4848 37.4931 23.2321 37.2773 23.0541 37.0019C22.8759 36.7261 22.7867 36.4143 22.7867 36.0668C22.7867 35.5224 22.9811 35.0862 23.3701 34.7577C23.7588 34.4288 24.3709 34.2644 25.2069 34.2644H26.7111V34.174C26.7111 33.7509 26.5895 33.4256 26.3463 33.199C26.1028 32.9723 25.7412 32.859 25.2617 32.859C24.9347 32.859 24.6128 32.9121 24.2969 33.0175C23.9806 33.1237 23.7138 33.2707 23.4958 33.4597L22.9612 32.428C23.2665 32.1866 23.6334 32.0012 24.0625 31.8729C24.4912 31.7445 24.9451 31.6799 25.4252 31.6799V31.6803ZM25.2397 36.8489C25.5811 36.8489 25.8848 36.768 26.15 36.6056C26.4153 36.4431 26.6024 36.2106 26.7114 35.9086V35.2057H25.3052C24.5205 35.2057 24.128 35.474 24.128 36.0104C24.128 36.2675 24.226 36.4716 24.4222 36.6226C24.6185 36.7739 24.891 36.8492 25.24 36.8492L25.2397 36.8489ZM32.7139 37.8806C32.1103 37.8806 31.5691 37.7483 31.0894 37.484C30.6096 37.2193 30.2354 36.8509 29.9664 36.3789C29.6973 35.9066 29.5632 35.3718 29.5632 34.7747C29.5632 34.178 29.6977 33.6454 29.9664 33.1764C30.2354 32.708 30.6077 32.3415 31.0837 32.0772C31.56 31.8126 32.1031 31.6803 32.7139 31.6803C33.2878 31.6803 33.7909 31.8011 34.2234 32.0432C34.6559 32.2852 34.981 32.6327 35.1993 33.086L34.1528 33.7207C33.9855 33.441 33.7767 33.2314 33.526 33.0916C33.2752 32.9517 33.0008 32.8819 32.7028 32.8819C32.1941 32.8819 31.7726 33.0539 31.4381 33.3975C31.1039 33.7414 30.9369 34.2006 30.9369 34.7747C30.9369 35.3492 31.102 35.8084 31.4327 36.1519C31.7635 36.4958 32.1865 36.6678 32.7028 36.6678C33.0008 36.6678 33.2749 36.598 33.526 36.4582C33.7767 36.3183 33.9855 36.1087 34.1528 35.829L35.1993 36.4637C34.9737 36.9174 34.6449 37.2668 34.2124 37.5121C33.7798 37.7574 33.2802 37.8806 32.7139 37.8806ZM41.1473 32.9501H39.1085V37.8013H37.7458V32.9501H35.6964V31.7487H41.1469V32.9501H41.1473ZM44.566 37.8806C43.9776 37.8806 43.4468 37.7483 42.9746 37.484C42.5021 37.2193 42.1335 36.8509 41.868 36.3789C41.6028 35.9066 41.4701 35.3718 41.4701 34.7747C41.4701 34.178 41.6028 33.6454 41.868 33.1764C42.1335 32.708 42.5021 32.3415 42.9746 32.0772C43.4471 31.8126 43.9776 31.6803 44.566 31.6803C45.162 31.6803 45.696 31.8126 46.1685 32.0772C46.641 32.3415 47.0099 32.708 47.2751 33.1764C47.5403 33.6454 47.673 34.1776 47.673 34.7747C47.673 35.3714 47.5403 35.9063 47.2751 36.3789C47.0099 36.8509 46.641 37.2193 46.1685 37.484C45.696 37.7483 45.162 37.8806 44.566 37.8806ZM44.566 36.6681C45.0675 36.6681 45.4818 36.4942 45.8091 36.1467C46.136 35.7992 46.2995 35.342 46.2995 34.775C46.2995 34.2084 46.136 33.7512 45.8091 33.4037C45.4821 33.0562 45.0675 32.8823 44.566 32.8823C44.0645 32.8823 43.6522 33.0562 43.3287 33.4037C43.0055 33.7512 42.8439 34.2084 42.8439 34.775C42.8439 35.342 43.0055 35.7992 43.3287 36.1467C43.6519 36.4942 44.0645 36.6681 44.566 36.6681ZM52.5417 31.6806C53.1087 31.6806 53.6156 31.8093 54.0626 32.0661C54.5093 32.3229 54.8602 32.6858 55.1144 33.1541C55.3689 33.6225 55.4959 34.1629 55.4959 34.7747C55.4959 35.3868 55.3689 35.9292 55.1144 36.4012C54.8602 36.8735 54.5093 37.238 54.0626 37.4951C53.6153 37.7519 53.1084 37.8803 52.5417 37.8803C51.757 37.8803 51.1355 37.6081 50.6778 37.0644V40H49.3151V31.7484H50.612V32.5417C50.8375 32.2547 51.1154 32.0389 51.4458 31.8958C51.7766 31.752 52.142 31.6803 52.5414 31.6803L52.5417 31.6806ZM52.3893 36.6681C52.8907 36.6681 53.3031 36.4942 53.6266 36.1467C53.9504 35.7992 54.112 35.342 54.112 34.775C54.112 34.2084 53.9504 33.7512 53.6266 33.4037C53.3034 33.0562 52.8907 32.8823 52.3893 32.8823C52.0623 32.8823 51.7681 32.9596 51.5063 33.1148C51.2448 33.2694 51.0376 33.4905 50.8851 33.7777C50.7326 34.0653 50.6561 34.3974 50.6561 34.775C50.6561 35.1527 50.7323 35.4854 50.8851 35.7723C51.0376 36.0599 51.2451 36.2803 51.5063 36.4356C51.7681 36.5902 52.0623 36.6681 52.3893 36.6681ZM61.6319 31.749H62.9946V34.2084H65.927V31.749H67.2897V37.8017H65.927V35.4101H62.9946V37.8017H61.6319V31.749ZM71.5918 31.6806C72.4493 31.6806 73.1051 31.8941 73.559 32.3212C74.0133 32.748 74.2404 33.3926 74.2404 34.2539V37.8013H72.9545V37.0647C72.7873 37.3291 72.5494 37.5311 72.2404 37.671C71.9314 37.8108 71.5591 37.8806 71.1228 37.8806C70.6868 37.8806 70.3053 37.8033 69.9783 37.6481C69.6514 37.4935 69.3987 37.2776 69.2207 37.0022C69.0424 36.7264 68.9533 36.4146 68.9533 36.0671C68.9533 35.5228 69.1477 35.0865 69.5367 34.758C69.9254 34.4292 70.5375 34.2648 71.3735 34.2648H72.8777V34.1744C72.8777 33.7512 72.7561 33.426 72.5129 33.1993C72.2694 32.9727 71.9078 32.8594 71.4283 32.8594C71.1013 32.8594 70.7794 32.9124 70.4635 33.0179C70.1472 33.124 69.8804 33.271 69.6624 33.46L69.1278 32.4283C69.4331 32.1869 69.8 32.0016 70.2291 31.8732C70.6578 31.7448 71.1117 31.6803 71.5918 31.6803V31.6806ZM71.4063 36.8492C71.7477 36.8492 72.0514 36.7683 72.3166 36.6059C72.5819 36.4434 72.769 36.2109 72.878 35.9089V35.206H71.4718C70.6871 35.206 70.2946 35.4743 70.2946 36.0108C70.2946 36.2679 70.3926 36.4719 70.5888 36.6229C70.7851 36.7742 71.0576 36.8496 71.4066 36.8496L71.4063 36.8492ZM81.8129 31.749V37.8017H80.4612V32.9504H77.5943V37.8017H76.2316V31.749H81.8129ZM86.5506 37.8809C85.9622 37.8809 85.4314 37.7486 84.9592 37.4843C84.4867 37.2197 84.1181 36.8512 83.8525 36.3792C83.5873 35.9069 83.4547 35.3721 83.4547 34.775C83.4547 34.1783 83.5873 33.6457 83.8525 33.1767C84.1181 32.7084 84.4867 32.3419 84.9592 32.0776C85.4317 31.8129 85.9622 31.6806 86.5506 31.6806C87.1466 31.6806 87.6805 31.8129 88.153 32.0776C88.6255 32.3419 88.9944 32.7084 89.2597 33.1767C89.5249 33.6457 89.6575 34.178 89.6575 34.775C89.6575 35.3718 89.5249 35.9066 89.2597 36.3792C88.9944 36.8512 88.6255 37.2197 88.153 37.4843C87.6805 37.7486 87.1466 37.8809 86.5506 37.8809ZM86.5506 36.6684C87.0521 36.6684 87.4663 36.4945 87.7936 36.147C88.1206 35.7995 88.2841 35.3423 88.2841 34.7754C88.2841 34.2087 88.1206 33.7515 87.7936 33.404C87.4666 33.0565 87.0521 32.8826 86.5506 32.8826C86.0491 32.8826 85.6367 33.0565 85.3132 33.404C84.99 33.7515 84.8284 34.2087 84.8284 34.7754C84.8284 35.3423 84.99 35.7995 85.3132 36.147C85.6364 36.4945 86.0491 36.6684 86.5506 36.6684ZM96.4012 31.7494V37.802H95.0385V32.9507H92.858L92.8035 34.1524C92.767 34.9535 92.6961 35.624 92.5909 36.1641C92.4853 36.7045 92.3074 37.1312 92.0563 37.445C91.8059 37.7584 91.4622 37.9153 91.0262 37.9153C90.8227 37.9153 90.572 37.8737 90.274 37.7905L90.3392 36.6003C90.4413 36.6232 90.5285 36.6344 90.601 36.6344C90.8769 36.6344 91.0845 36.5194 91.2222 36.2888C91.3604 36.0583 91.4496 35.7822 91.4896 35.4615C91.5293 35.1402 91.5639 34.6814 91.5932 34.0843L91.6915 31.7494H96.4009H96.4012ZM101.455 33.7443C102.196 33.7443 102.765 33.9179 103.161 34.2654C103.557 34.6132 103.755 35.1042 103.755 35.7393C103.755 36.4041 103.537 36.918 103.101 37.2806C102.665 37.6435 102.051 37.821 101.259 37.8135L98.5335 37.802V31.7494H99.8962V33.7329L101.455 33.7443ZM101.139 36.7703C101.538 36.7782 101.844 36.691 102.054 36.5099C102.265 36.3285 102.371 36.0638 102.371 35.7163C102.371 35.3764 102.269 35.1268 102.065 34.9683C101.862 34.8097 101.553 34.7262 101.139 34.719L99.8959 34.7076V36.7595L101.139 36.7706V36.7703ZM105.255 31.7494H106.618V34.2087H109.551V31.7494H110.913V37.802H109.551V35.4104H106.618V37.802H105.255V31.7494ZM115.88 33.7443C116.622 33.7443 117.188 33.9179 117.581 34.2654C117.973 34.6132 118.17 35.1042 118.17 35.7393C118.17 36.4041 117.953 36.918 117.521 37.2806C117.088 37.6435 116.476 37.821 115.684 37.8135L113.046 37.802V31.7494H114.408V33.7329L115.88 33.7443H115.88ZM118.921 31.7494H120.284V37.802H118.921V31.7494ZM115.564 36.7703C115.964 36.7782 116.269 36.691 116.479 36.5099C116.69 36.3285 116.796 36.0638 116.796 35.7163C116.796 35.3764 116.694 35.1268 116.491 34.9683C116.287 34.8097 115.978 34.7262 115.564 34.719L114.408 34.7076V36.7595L115.564 36.7706V36.7703ZM126.058 37.802L124.564 35.7052L123.06 37.802H121.555L123.823 34.7305L121.653 31.7497H123.169L124.597 33.7332L126.025 31.7497H127.496L125.316 34.7079L127.594 37.8023H126.057L126.058 37.802ZM138.93 31.7494V37.802H137.578V32.9507H134.712V37.802H133.349V31.7494H138.93ZM143.668 37.8813C143.079 37.8813 142.549 37.7489 142.076 37.4846C141.604 37.22 141.235 36.8515 140.97 36.3796C140.705 35.9073 140.572 35.3724 140.572 34.7754C140.572 34.1786 140.705 33.6461 140.97 33.177C141.235 32.7087 141.604 32.3422 142.076 32.0779C142.549 31.8132 143.079 31.6809 143.668 31.6809C144.264 31.6809 144.798 31.8132 145.27 32.0779C145.743 32.3422 146.112 32.7087 146.377 33.177C146.642 33.6461 146.775 34.1783 146.775 34.7754C146.775 35.3721 146.642 35.9069 146.377 36.3796C146.112 36.8515 145.743 37.22 145.27 37.4846C144.798 37.7489 144.264 37.8813 143.668 37.8813ZM143.668 36.6688C144.169 36.6688 144.584 36.4949 144.911 36.1473C145.238 35.7998 145.401 35.3426 145.401 34.7757C145.401 34.2091 145.238 33.7518 144.911 33.4043C144.584 33.0568 144.169 32.8829 143.668 32.8829C143.166 32.8829 142.754 33.0568 142.43 33.4043C142.107 33.7518 141.946 34.2091 141.946 34.7757C141.946 35.3426 142.107 35.7998 142.43 36.1473C142.754 36.4949 143.166 36.6688 143.668 36.6688ZM150.837 35.3764H149.78V37.802H148.417V31.7494H149.78V34.1973H150.87L152.592 31.7494H154.053L151.938 34.6624L154.194 37.802H152.592L150.837 35.3764ZM158.682 31.6813C159.249 31.6813 159.756 31.81 160.203 32.0667C160.649 32.3235 161 32.6864 161.254 33.1548C161.509 33.6231 161.636 34.1635 161.636 34.7754C161.636 35.3875 161.509 35.9299 161.254 36.4018C161 36.8741 160.649 37.2387 160.203 37.4958C159.755 37.7525 159.248 37.8809 158.682 37.8809C157.897 37.8809 157.276 37.6088 156.818 37.0651V40.0007H155.455V31.749H156.752V32.5423C156.978 32.2554 157.255 32.0396 157.586 31.8964C157.917 31.7527 158.282 31.6809 158.681 31.6809L158.682 31.6813ZM158.529 36.6688C159.031 36.6688 159.443 36.4949 159.767 36.1473C160.09 35.7998 160.252 35.3426 160.252 34.7757C160.252 34.2091 160.09 33.7518 159.767 33.4043C159.443 33.0568 159.031 32.8829 158.529 32.8829C158.202 32.8829 157.908 32.9602 157.646 33.1155C157.385 33.2701 157.178 33.4911 157.025 33.7784C156.873 34.0659 156.796 34.3981 156.796 34.7757C156.796 35.1533 156.872 35.4861 157.025 35.773C157.178 36.0606 157.385 36.281 157.646 36.4362C157.908 36.5908 158.202 36.6688 158.529 36.6688ZM166.123 33.7443C166.865 33.7443 167.432 33.9179 167.824 34.2654C168.217 34.6132 168.413 35.1042 168.413 35.7393C168.413 36.4041 168.197 36.918 167.764 37.2806C167.332 37.6435 166.719 37.821 165.927 37.8135L163.289 37.802V31.7494H164.652V33.7329L166.123 33.7443H166.123ZM169.165 31.7494H170.528V37.802H169.165V31.7494ZM165.807 36.7703C166.207 36.7782 166.512 36.691 166.723 36.5099C166.934 36.3285 167.039 36.0638 167.039 35.7163C167.039 35.3764 166.937 35.1268 166.734 34.9683C166.53 34.8097 166.221 34.7262 165.807 34.719L164.652 34.7076V36.7595L165.807 36.7706V36.7703ZM177.271 32.9507H175.233V37.802H173.87V32.9507H171.82V31.7494H177.271V32.9507H177.271ZM178.564 31.7494H179.927V35.7389L183.143 31.7494H184.386V37.802H183.023V33.8124L179.818 37.802H178.565V31.7494H178.564ZM186.518 31.7494H187.881V35.7389L191.097 31.7494H192.34V37.802H190.977V33.8124L187.772 37.802H186.519V31.7494H186.518ZM189.341 31.035C188.753 31.035 188.304 30.8932 187.995 30.6103C187.686 30.3266 187.528 29.9133 187.521 29.3689H188.426C188.433 29.6411 188.515 29.8563 188.671 30.0148C188.827 30.174 189.047 30.2533 189.33 30.2533C189.607 30.2533 189.827 30.174 189.99 30.0148C190.154 29.8563 190.239 29.6411 190.246 29.3689H191.173C191.166 29.9133 191.006 30.3266 190.693 30.6103C190.381 30.8932 189.93 31.035 189.341 31.035Z" fill="#4B4D4D"/>
    </g>
    <defs>
        <clipPath id="clip0_522_133030">
            <rect width="193" height="40" fill="white"/>
        </clipPath>
    </defs>
</svg>
