<svg width="191" height="43" viewBox="0 0 191 43" fill="none" xmlns="http://www.w3.org/2000/svg">
    <path d="M2.54 22V6.16H9.228C9.382 6.16 9.58733 6.16733 9.844 6.182C10.108 6.18933 10.3427 6.21133 10.548 6.248C11.494 6.39467 12.2677 6.70633 12.869 7.183C13.4777 7.65967 13.925 8.261 14.211 8.987C14.497 9.70567 14.64 10.5087 14.64 11.396C14.64 12.7233 14.31 13.86 13.65 14.806C12.99 15.7447 11.956 16.324 10.548 16.544L9.228 16.632H5.532V22H2.54ZM11.472 22L8.348 15.554L11.428 14.96L14.86 22H11.472ZM5.532 13.838H9.096C9.25 13.838 9.41867 13.8307 9.602 13.816C9.78533 13.8013 9.954 13.772 10.108 13.728C10.5113 13.618 10.823 13.4347 11.043 13.178C11.263 12.914 11.4133 12.6243 11.494 12.309C11.582 11.9863 11.626 11.682 11.626 11.396C11.626 11.11 11.582 10.8093 11.494 10.494C11.4133 10.1713 11.263 9.88167 11.043 9.625C10.823 9.361 10.5113 9.174 10.108 9.064C9.954 9.02 9.78533 8.99067 9.602 8.976C9.41867 8.96133 9.25 8.954 9.096 8.954H5.532V13.838ZM17.5283 22V6.16H27.8683V8.954H20.5203V12.342H26.5483V15.136H20.5203V19.206H27.8683V22H17.5283ZM30.7548 22V6.16H33.4388L38.6748 16.676L43.9108 6.16H46.5948V22H43.8008V12.54L39.2028 22H38.1468L33.5488 12.54V22H30.7548ZM56.7306 22.33C55.1466 22.33 53.7789 21.9853 52.6276 21.296C51.4836 20.6067 50.5999 19.6423 49.9766 18.403C49.3606 17.1637 49.0526 15.7227 49.0526 14.08C49.0526 12.4373 49.3606 10.9963 49.9766 9.757C50.5999 8.51767 51.4836 7.55333 52.6276 6.864C53.7789 6.17467 55.1466 5.83 56.7306 5.83C58.3146 5.83 59.6786 6.17467 60.8226 6.864C61.9739 7.55333 62.8576 8.51767 63.4736 9.757C64.0969 10.9963 64.4086 12.4373 64.4086 14.08C64.4086 15.7227 64.0969 17.1637 63.4736 18.403C62.8576 19.6423 61.9739 20.6067 60.8226 21.296C59.6786 21.9853 58.3146 22.33 56.7306 22.33ZM56.7306 19.514C57.7352 19.5287 58.5712 19.3123 59.2386 18.865C59.9059 18.4177 60.4046 17.7833 60.7346 16.962C61.0719 16.1407 61.2406 15.18 61.2406 14.08C61.2406 12.98 61.0719 12.0267 60.7346 11.22C60.4046 10.4133 59.9059 9.78633 59.2386 9.339C58.5712 8.89167 57.7352 8.66067 56.7306 8.646C55.7259 8.63133 54.8899 8.84767 54.2226 9.295C53.5552 9.74233 53.0529 10.3767 52.7156 11.198C52.3856 12.0193 52.2206 12.98 52.2206 14.08C52.2206 15.18 52.3856 16.1333 52.7156 16.94C53.0529 17.7467 53.5552 18.3737 54.2226 18.821C54.8899 19.2683 55.7259 19.4993 56.7306 19.514ZM66.8545 22V6.16H69.8905L76.7765 16.72V6.16H79.8125V22H76.7765L69.8905 11.44V22H66.8545ZM86.8058 22V8.954H81.8118V6.16H94.7918V8.954H89.7978V22H86.8058ZM96.8095 22V6.16H99.8455L106.732 16.72V6.16H109.768V22H106.732L99.8455 11.44V22H96.8095ZM113.307 22V6.16H116.299V22H113.307ZM126.645 22.33C125.061 22.33 123.693 21.9853 122.542 21.296C121.398 20.6067 120.514 19.6423 119.891 18.403C119.275 17.1637 118.967 15.7227 118.967 14.08C118.967 12.4373 119.275 10.9963 119.891 9.757C120.514 8.51767 121.398 7.55333 122.542 6.864C123.693 6.17467 125.061 5.83 126.645 5.83C128.463 5.83 129.989 6.281 131.221 7.183C132.46 8.085 133.333 9.306 133.839 10.846L130.825 11.682C130.531 10.7213 130.036 9.977 129.34 9.449C128.643 8.91367 127.745 8.646 126.645 8.646C125.64 8.646 124.8 8.86967 124.126 9.317C123.458 9.76433 122.956 10.395 122.619 11.209C122.281 12.023 122.113 12.98 122.113 14.08C122.113 15.18 122.281 16.137 122.619 16.951C122.956 17.765 123.458 18.3957 124.126 18.843C124.8 19.2903 125.64 19.514 126.645 19.514C127.745 19.514 128.643 19.2463 129.34 18.711C130.036 18.1757 130.531 17.4313 130.825 16.478L133.839 17.314C133.333 18.854 132.46 20.075 131.221 20.977C129.989 21.879 128.463 22.33 126.645 22.33ZM136.511 22V6.16H139.503V13.464L145.531 6.16H149.183L142.561 13.97L149.601 22H145.817L139.503 14.784V22H136.511Z" fill="#1D1D1D"/>
    <path d="M151.876 22V19.008H154.868V22H151.876ZM158.688 22V6.16H165.376C165.53 6.16 165.736 6.16733 165.992 6.182C166.256 6.18933 166.491 6.21133 166.696 6.248C167.642 6.39467 168.416 6.70633 169.017 7.183C169.626 7.65967 170.073 8.261 170.359 8.987C170.645 9.70567 170.788 10.5087 170.788 11.396C170.788 12.7233 170.458 13.86 169.798 14.806C169.138 15.7447 168.104 16.324 166.696 16.544L165.376 16.632H161.68V22H158.688ZM167.62 22L164.496 15.554L167.576 14.96L171.008 22H167.62ZM161.68 13.838H165.244C165.398 13.838 165.567 13.8307 165.75 13.816C165.934 13.8013 166.102 13.772 166.256 13.728C166.66 13.618 166.971 13.4347 167.191 13.178C167.411 12.914 167.562 12.6243 167.642 12.309C167.73 11.9863 167.774 11.682 167.774 11.396C167.774 11.11 167.73 10.8093 167.642 10.494C167.562 10.1713 167.411 9.88167 167.191 9.625C166.971 9.361 166.66 9.174 166.256 9.064C166.102 9.02 165.934 8.99067 165.75 8.976C165.567 8.96133 165.398 8.954 165.244 8.954H161.68V13.838ZM180.123 22.33C178.847 22.33 177.725 22.0733 176.757 21.56C175.789 21.0393 175.033 20.3097 174.491 19.371C173.948 18.4323 173.677 17.3287 173.677 16.06V6.182L176.713 6.16V16.038C176.713 16.5587 176.801 17.0317 176.977 17.457C177.153 17.8823 177.395 18.249 177.703 18.557C178.018 18.865 178.381 19.1033 178.792 19.272C179.21 19.4333 179.653 19.514 180.123 19.514C180.607 19.514 181.054 19.4297 181.465 19.261C181.883 19.0923 182.246 18.854 182.554 18.546C182.862 18.238 183.1 17.8713 183.269 17.446C183.445 17.0207 183.533 16.5513 183.533 16.038V6.16H186.569V16.06C186.569 17.3287 186.297 18.4323 185.755 19.371C185.212 20.3097 184.457 21.0393 183.489 21.56C182.521 22.0733 181.399 22.33 180.123 22.33Z" fill="#FFB74D"/>
    <path d="M2.70975 41V34.88H3.23775L5.73375 38.396L8.22975 34.88H8.75775V41H8.16975V35.9L5.70975 39.284L3.27375 35.9V41H2.70975ZM13.5749 41.144C12.7509 41.144 12.0429 40.844 11.4509 40.244C10.8669 39.644 10.5749 38.872 10.5749 37.928C10.5749 37.032 10.8509 36.276 11.4029 35.66C11.9629 35.044 12.6549 34.736 13.4789 34.736C14.3189 34.736 14.9949 35.04 15.5069 35.648C16.0269 36.256 16.2869 37.02 16.2869 37.94C16.2869 38.036 16.2829 38.116 16.2749 38.18H11.1989C11.2549 38.916 11.5109 39.504 11.9669 39.944C12.4309 40.376 12.9749 40.592 13.5989 40.592C14.3989 40.592 15.0989 40.272 15.6989 39.632L16.1069 39.992C15.3949 40.76 14.5509 41.144 13.5749 41.144ZM11.1989 37.652H15.6509C15.6029 36.98 15.3909 36.416 15.0149 35.96C14.6389 35.504 14.1189 35.276 13.4549 35.276C12.8549 35.276 12.3429 35.504 11.9189 35.96C11.4949 36.408 11.2549 36.972 11.1989 37.652ZM18.0027 41V34.88H22.0467V35.408H18.5907V41H18.0027ZM25.3823 41.144C24.7103 41.144 24.1463 40.976 23.6903 40.64C23.2423 40.296 23.0183 39.816 23.0183 39.2C23.0183 38.576 23.2623 38.088 23.7503 37.736C24.2383 37.384 24.8863 37.208 25.6943 37.208C26.3823 37.208 27.0583 37.296 27.7223 37.472V37.208C27.7223 36.6 27.5463 36.136 27.1943 35.816C26.8423 35.496 26.3463 35.336 25.7063 35.336C25.0663 35.336 24.4263 35.5 23.7863 35.828L23.5703 35.312C24.3303 34.96 25.0543 34.784 25.7423 34.784C26.5823 34.784 27.2263 35.008 27.6743 35.456C28.0903 35.872 28.2983 36.448 28.2983 37.184V41H27.7223V39.98C27.1703 40.756 26.3903 41.144 25.3823 41.144ZM25.4183 40.592C26.0583 40.592 26.6023 40.416 27.0503 40.064C27.5063 39.704 27.7343 39.252 27.7343 38.708V38.012C27.0143 37.828 26.3223 37.736 25.6583 37.736C25.0183 37.736 24.5223 37.868 24.1702 38.132C23.8263 38.388 23.6543 38.74 23.6543 39.188C23.6543 39.628 23.8143 39.972 24.1343 40.22C24.4543 40.468 24.8823 40.592 25.4183 40.592ZM33.1129 41.144C32.2329 41.144 31.4929 40.832 30.8929 40.208C30.2929 39.584 29.9929 38.828 29.9929 37.94C29.9929 37.06 30.2929 36.308 30.8929 35.684C31.5009 35.052 32.2409 34.736 33.1129 34.736C34.0649 34.736 34.8769 35.116 35.5489 35.876L35.1409 36.296C34.4849 35.624 33.8049 35.288 33.1009 35.288C32.4209 35.288 31.8369 35.548 31.3489 36.068C30.8689 36.588 30.6289 37.212 30.6289 37.94C30.6289 38.676 30.8729 39.304 31.3609 39.824C31.8489 40.336 32.4449 40.592 33.1489 40.592C33.8769 40.592 34.5529 40.244 35.1769 39.548L35.6089 39.932C34.8969 40.74 34.0649 41.144 33.1129 41.144ZM38.8043 41V35.408H36.5123V34.88H41.6843V35.408H39.3923V41H38.8043ZM48.1189 40.196C47.5189 40.828 46.7709 41.144 45.8749 41.144C44.9789 41.144 44.2309 40.832 43.6309 40.208C43.0389 39.576 42.7429 38.82 42.7429 37.94C42.7429 37.068 43.0429 36.316 43.6429 35.684C44.2509 35.052 45.0029 34.736 45.8989 34.736C46.7949 34.736 47.5389 35.052 48.1309 35.684C48.7309 36.308 49.0309 37.06 49.0309 37.94C49.0309 38.812 48.7269 39.564 48.1189 40.196ZM45.8989 40.592C46.5789 40.592 47.1629 40.332 47.6509 39.812C48.1469 39.292 48.3949 38.668 48.3949 37.94C48.3949 37.204 48.1469 36.58 47.6509 36.068C47.1629 35.548 46.5709 35.288 45.8749 35.288C45.1869 35.288 44.5989 35.548 44.1109 36.068C43.6229 36.58 43.3789 37.204 43.3789 37.94C43.3789 38.676 43.6229 39.304 44.1109 39.824C44.5989 40.336 45.1949 40.592 45.8989 40.592ZM50.8387 42.92V34.88H51.4267V36.248C52.0907 35.24 52.9307 34.736 53.9467 34.736C54.7307 34.736 55.4227 35.032 56.0227 35.624C56.6227 36.208 56.9227 36.98 56.9227 37.94C56.9227 38.892 56.6227 39.664 56.0227 40.256C55.4227 40.848 54.7307 41.144 53.9467 41.144C52.9067 41.144 52.0667 40.656 51.4267 39.68V42.92H50.8387ZM53.8867 40.58C54.5747 40.58 55.1467 40.344 55.6027 39.872C56.0587 39.392 56.2867 38.748 56.2867 37.94C56.2867 37.156 56.0507 36.52 55.5787 36.032C55.1147 35.544 54.5507 35.3 53.8867 35.3C53.2227 35.3 52.6387 35.552 52.1347 36.056C51.6387 36.552 51.3907 37.184 51.3907 37.952C51.3907 38.712 51.6387 39.34 52.1347 39.836C52.6387 40.332 53.2227 40.58 53.8867 40.58ZM62.3582 41V34.88H62.9462V37.604H67.0142V34.88H67.6022V41H67.0142V38.132H62.9462V41H62.3582ZM71.6948 41.144C71.0228 41.144 70.4588 40.976 70.0028 40.64C69.5548 40.296 69.3308 39.816 69.3308 39.2C69.3308 38.576 69.5748 38.088 70.0628 37.736C70.5508 37.384 71.1988 37.208 72.0068 37.208C72.6948 37.208 73.3708 37.296 74.0348 37.472V37.208C74.0348 36.6 73.8588 36.136 73.5068 35.816C73.1548 35.496 72.6588 35.336 72.0188 35.336C71.3788 35.336 70.7388 35.5 70.0988 35.828L69.8828 35.312C70.6428 34.96 71.3668 34.784 72.0548 34.784C72.8948 34.784 73.5388 35.008 73.9868 35.456C74.4028 35.872 74.6108 36.448 74.6108 37.184V41H74.0348V39.98C73.4828 40.756 72.7028 41.144 71.6948 41.144ZM71.7308 40.592C72.3708 40.592 72.9148 40.416 73.3628 40.064C73.8188 39.704 74.0468 39.252 74.0468 38.708V38.012C73.3268 37.828 72.6348 37.736 71.9708 37.736C71.3308 37.736 70.8348 37.868 70.4827 38.132C70.1388 38.388 69.9668 38.74 69.9668 39.188C69.9668 39.628 70.1268 39.972 70.4468 40.22C70.7668 40.468 71.1948 40.592 71.7308 40.592ZM76.7254 41V34.88H81.8134V41H81.2254V35.408H77.3134V41H76.7254ZM89.0056 40.196C88.4056 40.828 87.6576 41.144 86.7616 41.144C85.8656 41.144 85.1176 40.832 84.5176 40.208C83.9256 39.576 83.6296 38.82 83.6296 37.94C83.6296 37.068 83.9296 36.316 84.5296 35.684C85.1376 35.052 85.8896 34.736 86.7856 34.736C87.6816 34.736 88.4256 35.052 89.0176 35.684C89.6176 36.308 89.9176 37.06 89.9176 37.94C89.9176 38.812 89.6136 39.564 89.0056 40.196ZM86.7856 40.592C87.4656 40.592 88.0496 40.332 88.5376 39.812C89.0336 39.292 89.2816 38.668 89.2816 37.94C89.2816 37.204 89.0336 36.58 88.5376 36.068C88.0496 35.548 87.4576 35.288 86.7616 35.288C86.0736 35.288 85.4856 35.548 84.9976 36.068C84.5096 36.58 84.2656 37.204 84.2656 37.94C84.2656 38.676 84.5096 39.304 84.9976 39.824C85.4856 40.336 86.0816 40.592 86.7856 40.592ZM91.3294 41.096C91.1054 41.096 90.8814 41.064 90.6574 41L90.7654 40.46C90.9654 40.516 91.1214 40.544 91.2334 40.544C91.3934 40.544 91.5214 40.528 91.6174 40.496C91.7214 40.456 91.8334 40.38 91.9534 40.268C92.0734 40.156 92.1694 39.98 92.2414 39.74C92.3134 39.5 92.3814 39.188 92.4454 38.804C92.5174 38.42 92.5694 37.928 92.6014 37.328C92.6334 36.728 92.6494 36.02 92.6494 35.204V34.88H96.8134V41H96.2254V35.408H93.2134V35.576C93.2134 36.568 93.1814 37.408 93.1174 38.096C93.0534 38.784 92.9734 39.324 92.8774 39.716C92.7814 40.1 92.6454 40.4 92.4694 40.616C92.2934 40.824 92.1214 40.956 91.9534 41.012C91.7934 41.068 91.5854 41.096 91.3294 41.096ZM99.0496 41V34.88H99.6376V37.232H101.462C102.142 37.232 102.702 37.384 103.142 37.688C103.582 37.984 103.802 38.432 103.802 39.032C103.802 39.624 103.598 40.1 103.19 40.46C102.782 40.82 102.242 41 101.57 41H99.0496ZM99.6376 40.472H101.474C101.994 40.472 102.406 40.348 102.71 40.1C103.014 39.852 103.166 39.504 103.166 39.056C103.166 38.648 103.01 38.332 102.698 38.108C102.386 37.876 101.962 37.76 101.426 37.76H99.6376V40.472ZM105.401 41V34.88H105.989V37.604H110.057V34.88H110.645V41H110.057V38.132H105.989V41H105.401ZM112.878 41V34.88H113.466V37.232H115.29C115.97 37.232 116.53 37.384 116.97 37.688C117.41 37.984 117.63 38.432 117.63 39.032C117.63 39.624 117.426 40.1 117.018 40.46C116.61 40.82 116.07 41 115.398 41H112.878ZM113.466 40.472H115.302C115.822 40.472 116.234 40.348 116.538 40.1C116.842 39.852 116.994 39.504 116.994 39.056C116.994 38.648 116.838 38.332 116.526 38.108C116.214 37.876 115.79 37.76 115.254 37.76H113.466V40.472ZM118.854 41V34.88H119.442V41H118.854ZM121.103 41L123.611 37.88L121.199 34.88H121.931L123.995 37.472L126.059 34.88H126.767L124.355 37.868L126.863 41H126.131L123.971 38.276L121.811 41H121.103ZM132.12 41V34.88H137.208V41H136.62V35.408H132.708V41H132.12ZM144.4 40.196C143.8 40.828 143.052 41.144 142.156 41.144C141.26 41.144 140.512 40.832 139.912 40.208C139.32 39.576 139.024 38.82 139.024 37.94C139.024 37.068 139.324 36.316 139.924 35.684C140.532 35.052 141.284 34.736 142.18 34.736C143.076 34.736 143.82 35.052 144.412 35.684C145.012 36.308 145.312 37.06 145.312 37.94C145.312 38.812 145.008 39.564 144.4 40.196ZM142.18 40.592C142.86 40.592 143.444 40.332 143.932 39.812C144.428 39.292 144.676 38.668 144.676 37.94C144.676 37.204 144.428 36.58 143.932 36.068C143.444 35.548 142.852 35.288 142.156 35.288C141.468 35.288 140.88 35.548 140.392 36.068C139.904 36.58 139.66 37.204 139.66 37.94C139.66 38.676 139.904 39.304 140.392 39.824C140.88 40.336 141.476 40.592 142.18 40.592ZM147.12 41V34.88H147.708V38.804L151.5 34.88H152.28L149.604 37.592L152.364 41H151.62L149.196 38.012L147.708 39.512V41H147.12ZM153.788 42.92V34.88H154.376V36.248C155.04 35.24 155.88 34.736 156.896 34.736C157.68 34.736 158.372 35.032 158.972 35.624C159.572 36.208 159.872 36.98 159.872 37.94C159.872 38.892 159.572 39.664 158.972 40.256C158.372 40.848 157.68 41.144 156.896 41.144C155.856 41.144 155.016 40.656 154.376 39.68V42.92H153.788ZM156.836 40.58C157.524 40.58 158.096 40.344 158.552 39.872C159.008 39.392 159.236 38.748 159.236 37.94C159.236 37.156 159 36.52 158.528 36.032C158.064 35.544 157.5 35.3 156.836 35.3C156.172 35.3 155.588 35.552 155.084 36.056C154.588 36.552 154.34 37.184 154.34 37.952C154.34 38.712 154.588 39.34 155.084 39.836C155.588 40.332 156.172 40.58 156.836 40.58ZM161.71 41V34.88H162.298V37.232H164.122C164.802 37.232 165.362 37.384 165.802 37.688C166.242 37.984 166.462 38.432 166.462 39.032C166.462 39.624 166.258 40.1 165.85 40.46C165.442 40.82 164.902 41 164.23 41H161.71ZM162.298 40.472H164.134C164.654 40.472 165.066 40.348 165.37 40.1C165.674 39.852 165.826 39.504 165.826 39.056C165.826 38.648 165.67 38.332 165.358 38.108C165.046 37.876 164.622 37.76 164.086 37.76H162.298V40.472ZM167.686 41V34.88H168.274V41H167.686ZM172.047 41V35.408H169.755V34.88H174.927V35.408H172.635V41H172.047ZM176.405 41V34.88H176.993V40.22L181.145 34.88H181.733V41H181.145V35.66L176.993 41H176.405ZM183.964 41V34.88H184.552V40.22L188.704 34.88H189.292V41H188.704V35.66L184.552 41H183.964ZM187.696 33.5C187.4 33.756 187.044 33.884 186.628 33.884C186.212 33.884 185.856 33.756 185.56 33.5C185.264 33.236 185.08 32.904 185.008 32.504L185.5 32.396C185.652 32.98 186.028 33.272 186.628 33.272C187.228 33.272 187.604 32.98 187.756 32.396L188.248 32.504C188.176 32.904 187.992 33.236 187.696 33.5Z" fill="black"/>
</svg>
