<svg width="80" height="80" viewBox="0 0 80 80" fill="none" xmlns="http://www.w3.org/2000/svg">
<path d="M80 40C80 62.0914 62.0914 80 40 80C17.9086 80 0 62.0914 0 40C0 17.9086 17.9086 0 40 0C62.0914 0 80 17.9086 80 40Z" fill="#FFB74D"/>
<path fill-rule="evenodd" clip-rule="evenodd" d="M24.5258 22H55.4742C56.8633 22 58 23.1367 58 24.5258V55.4742C58 56.8633 56.8633 58 55.4742 58H24.5258C23.1367 58 22 56.8633 22 55.4742V24.5258C22 23.1367 23.1367 22 24.5258 22V22ZM23.9749 31.0093V23.9729H31.485C31.3223 24.2159 27.6532 27.5921 27.3062 27.9132C27.1327 28.0738 27.003 28.218 26.8334 28.3877L24.9376 30.1455C24.6896 30.3909 24.3054 30.9212 23.9748 31.0095L23.9749 31.0093ZM29.6582 35.4748L25.5822 31.3641L28.8663 28.1876C29.623 27.5551 30.6626 26.4871 31.5015 25.7484C31.7508 25.5288 31.9714 25.2788 32.2115 25.0374C32.3717 24.8764 32.4118 24.8595 32.5777 24.7271C33.7087 23.825 32.4764 23.9728 35.4771 23.9728C37.4166 23.9728 39.3562 23.9728 41.2958 23.9728L32.992 32.2454C32.8252 32.4059 32.7481 32.4295 32.5838 32.5814C32.0003 33.1211 30.0412 35.2184 29.6585 35.4747L29.6582 35.4748ZM39.8239 35.221L35.7984 31.2291L42.8675 24.2593C43.2583 23.8508 43.2631 23.9717 44.0017 23.9729H51.0383L39.8237 35.2211L39.8239 35.221ZM48.5859 28.3197L50.7508 26.121C51.0294 25.8424 52.7882 23.9728 53.0005 23.9728H56.0452V28.2353C56.0452 28.4649 53.6239 30.758 53.2881 31.0938C53.0103 31.3715 52.6188 31.8267 52.324 32.0242L48.586 28.3197H48.5859ZM32.5845 51.7975L28.8295 48.0761L47.6385 29.2333L51.3933 32.9547L32.5845 51.7973V51.7975ZM23.9917 51.0532C23.9748 48.5564 23.9874 46.0733 23.9745 43.5936C23.97 42.7113 23.906 42.9522 24.5329 42.3253L27.376 39.5526C28.7562 38.2241 30.1968 36.6319 31.569 35.4236C31.7409 35.2721 31.8773 35.1162 32.043 34.9504L34.8679 32.1595C35.1188 32.2265 35.2217 32.4108 35.3923 32.5823C35.9324 33.1253 38.7363 35.8657 38.9274 36.1514L23.9917 51.0531V51.0532ZM23.9748 41.0228C23.9748 40.5578 23.9079 33.0563 24.0075 32.8013C24.0545 32.6807 24.5428 32.3 24.6513 32.2272L28.795 36.4056C28.0757 36.8927 27.0436 38.0557 26.3935 38.7055C25.8492 39.2497 24.5079 40.6659 23.9746 41.0228H23.9748ZM48.8055 44.4735L45.2708 40.904L56.0281 30.113L56.0485 36.8316C56.0544 37.4494 55.9268 37.3871 55.5884 37.7246C54.8861 38.4249 49.1281 44.2577 48.8056 44.4736L48.8055 44.4735ZM30.1316 56.043L44.3231 41.8178L47.9426 45.4038C47.2675 45.8646 37.5381 55.9386 37.2194 56.0267L30.1316 56.043ZM48.6701 54.2162L44.7971 50.3085L56.0281 39.1115L56.045 46.0971C56.0474 46.8835 56.1552 46.7798 55.7242 47.197C54.9027 47.9921 49.0321 53.9736 48.6702 54.216L48.6701 54.2162ZM28.2371 56.043H23.9746C23.9746 52.3397 23.668 53.2035 24.905 51.9665C25.2486 51.623 25.5425 51.3291 25.8861 50.9855L27.8988 49.0065L31.6369 52.7109C31.5345 52.8609 28.4598 56.043 28.2372 56.043H28.2371ZM39.1303 56.043L43.8829 51.2558L47.8074 55.1466C46.8533 55.8072 47.407 56.0561 46.3033 56.0441L39.1303 56.0429V56.043ZM56.028 48.6513L56.0449 56.043H48.6701L56.028 48.6513Z" fill="#1D1D1D"/>
</svg>
