<svg width="17" height="17" viewBox="0 0 17 17" xmlns="http://www.w3.org/2000/svg">
    <path d="M12.1504 10.8004H11.4394L11.1874 10.5574C12.0694 9.53139 12.6004 8.19939 12.6004 6.75039C12.6004 3.51939 9.98139 0.900391 6.75039 0.900391C3.51939 0.900391 0.900391 3.51939 0.900391 6.75039C0.900391 9.98139 3.51939 12.6004 6.75039 12.6004C8.19939 12.6004 9.53139 12.0694 10.5574 11.1874L10.8004 11.4394V12.1504L15.3004 16.6414L16.6414 15.3004L12.1504 10.8004ZM6.75039 10.8004C4.50939 10.8004 2.70039 8.99139 2.70039 6.75039C2.70039 4.50939 4.50939 2.70039 6.75039 2.70039C8.99139 2.70039 10.8004 4.50939 10.8004 6.75039C10.8004 8.99139 8.99139 10.8004 6.75039 10.8004Z"/>
</svg>

