<svg width="36" height="36" viewBox="0 0 36 36" fill="none" xmlns="http://www.w3.org/2000/svg">
<path fill-rule="evenodd" clip-rule="evenodd" d="M2.52581 0H33.4742C34.8633 0 36 1.13666 36 2.52581V33.4742C36 34.8633 34.8633 36 33.4742 36H2.52581C1.13666 36 0 34.8633 0 33.4742V2.52581C0 1.13666 1.13666 0 2.52581 0V0ZM1.9749 9.00934V1.97292H9.48501C9.32228 2.21591 5.65321 5.5921 5.30622 5.91322C5.13266 6.07385 5.00305 6.21797 4.83345 6.38771L2.9376 8.14549C2.6896 8.39085 2.30539 8.92117 1.97477 9.00947L1.9749 9.00934ZM7.6582 13.4748L3.58222 9.36411L6.86629 6.18762C7.62296 5.55514 8.66261 4.48711 9.50151 3.74839C9.75083 3.52877 9.97138 3.27879 10.2115 3.03738C10.3717 2.87636 10.4118 2.85947 10.5777 2.72709C11.7087 1.82497 10.4764 1.97279 13.4771 1.97279C15.4166 1.97279 17.3562 1.97279 19.2958 1.97279L10.992 10.2454C10.8252 10.4059 10.7481 10.4295 10.5838 10.5814C10.0003 11.1211 8.04122 13.2184 7.65846 13.4747L7.6582 13.4748ZM17.8239 13.221L13.7984 9.22909L20.8675 2.25933C21.2583 1.85083 21.2631 1.97173 22.0017 1.97292H29.0383L17.8237 13.2211L17.8239 13.221ZM26.5859 6.31974L28.7508 4.12099C29.0294 3.84237 30.7882 1.97279 31.0005 1.97279H34.0452V6.23526C34.0452 6.46492 31.6239 8.75804 31.2881 9.09381C31.0103 9.37151 30.6188 9.82672 30.324 10.0242L26.586 6.31974H26.5859ZM10.5845 29.7975L6.82946 26.0761L25.6385 7.23334L29.3933 10.9547L10.5845 29.7973V29.7975ZM1.99166 29.0532C1.97477 26.5564 1.98744 24.0733 1.9745 21.5936C1.97002 20.7113 1.906 20.9522 2.53294 20.3253L5.37604 17.5526C6.75621 16.2241 8.19683 14.6319 9.56896 13.4236C9.74093 13.2721 9.87727 13.1162 10.043 12.9504L12.8679 10.1595C13.1188 10.2265 13.2217 10.4108 13.3923 10.5823C13.9324 11.1253 16.7363 13.8657 16.9274 14.1514L1.99166 29.0531V29.0532ZM1.97477 19.0228C1.97477 18.5578 1.90785 11.0563 2.0075 10.8013C2.05449 10.6807 2.54283 10.3 2.65133 10.2272L6.79502 14.4056C6.07569 14.8927 5.04357 16.0557 4.39354 16.7055C3.84923 17.2497 2.50786 18.6659 1.97464 19.0228H1.97477ZM26.8055 22.4735L23.2708 18.904L34.0281 8.11302L34.0485 14.8316C34.0544 15.4494 33.9268 15.3871 33.5884 15.7246C32.8861 16.4249 27.1281 22.2577 26.8056 22.4736L26.8055 22.4735ZM8.13163 34.043L22.3231 19.8178L25.9426 23.4038C25.2675 23.8646 15.5381 33.9386 15.2194 34.0267L8.13163 34.043ZM26.6701 32.2162L22.7971 28.3085L34.0281 17.1115L34.045 24.0971C34.0474 24.8835 34.1552 24.7798 33.7242 25.197C32.9027 25.9921 27.0321 31.9736 26.6702 32.216L26.6701 32.2162ZM6.23711 34.043H1.97464C1.97464 30.3397 1.66803 31.2035 2.905 29.9665C3.24856 29.623 3.54249 29.3291 3.88605 28.9855L5.89883 27.0065L9.63693 30.7109C9.53451 30.8609 6.45977 34.043 6.23724 34.043H6.23711ZM17.1303 34.043L21.8829 29.2558L25.8074 33.1466C24.8533 33.8072 25.407 34.0561 24.3033 34.0441L17.1303 34.0429V34.043ZM34.028 26.6513L34.0449 34.043H26.6701L34.028 26.6513Z" fill="#1D1D1D"/>
</svg>
