<svg width="80" height="80" viewBox="0 0 80 80" fill="none" xmlns="http://www.w3.org/2000/svg">
<path d="M80 40C80 62.0914 62.0914 80 40 80C17.9086 80 0 62.0914 0 40C0 17.9086 17.9086 0 40 0C62.0914 0 80 17.9086 80 40Z" fill="#FFB74D"/>
<path fill-rule="evenodd" clip-rule="evenodd" d="M17.5642 53.7126C16.6899 52.6045 16.4753 51.557 16.557 50.4156C16.5816 50.0705 16.5501 50.0091 16.5486 49.6851L16.595 44.2883C16.6156 43.9452 16.6207 43.9184 16.6053 43.5594C16.5908 43.2233 16.6313 43.0936 16.6168 42.7576C16.5383 40.9272 16.6088 38.4671 16.9815 36.658C17.0932 36.116 17.1788 35.7309 17.3811 35.1594C18.6269 31.64 19.5918 30.4546 22.1903 28.0512C24.2954 26.1042 27.2637 25.1928 29.766 24.9138C30.6391 24.8164 31.4062 24.8582 32.2592 24.9301C35.1895 25.1767 39.1189 26.6925 41.7948 30.0836C43.7173 32.5197 45.0932 35.4187 45.2645 38.5527L45.2683 43.1509C45.2832 45.2141 45.2062 47.1412 45.2211 49.2045C45.2302 50.4587 45.0657 54.3982 45.1588 55.2567L27.0333 55.1399C26.659 55.1135 26.5072 55.1421 26.1572 55.1342L22.7225 55.0886C21.7761 55.1377 20.0934 55.1251 19.2343 54.8501C18.7487 54.6946 18.0004 54.2654 17.5642 53.7125L17.5642 53.7126ZM21.4299 26.454C18.6393 29.035 17.3121 30.4788 15.9749 34.383C15.5635 35.5841 15.0409 38.1557 15.1014 39.3445L15.014 50.2114C15.0157 50.5783 14.9858 50.7024 15.0086 51.0868C15.1889 54.1265 17.281 56.4432 19.9798 56.6555C20.6591 56.7089 21.187 56.71 21.861 56.743L41.7383 56.8747C42.1412 56.8544 42.3256 56.9045 42.6808 56.8923L44.5673 56.9068C44.9341 56.8942 45.1514 56.9192 45.5113 56.9044C46.3741 56.8691 46.9507 56.9771 46.8655 55.1101C46.8478 54.723 46.8654 54.6686 46.8805 54.3085L46.8671 50.9502C46.8575 50.621 46.9093 50.4323 46.8937 50.0767L46.8741 38.3248C46.4077 34.2627 45.5721 32.0189 42.8487 28.5678C40.4546 25.5339 37.0936 24.0185 33.7952 23.2715C32.7056 23.0247 32.0908 23.0736 31.1179 23.0059C30.8633 22.9882 30.6956 23.0154 30.4427 23.0211C28.3192 23.0688 26.2133 23.6586 24.2611 24.5977C23.4539 24.986 22.2106 25.7318 21.4298 26.4541L21.4299 26.454Z" fill="#1D1D1D"/>
<path fill-rule="evenodd" clip-rule="evenodd" d="M62.3431 42.3411C62.9308 41.7975 63.6175 41.8967 64.1468 42.5675C64.5102 43.028 64.4187 45.5539 64.381 46.3095C64.3025 47.8801 64.4044 50.6225 64.3491 52.4373L64.2806 53.2343C64.0645 54.4288 62.7995 55.499 61.8805 55.2196L61.9158 49.6029C61.9382 49.2298 61.9325 49.1631 61.9218 48.8006C61.9067 48.2879 61.9614 47.7335 61.945 47.1969L61.8764 44.7827C61.8503 43.8919 61.8178 42.8269 62.3432 42.341L62.3431 42.3411ZM61.3658 40.9443C60.4527 41.7888 60.2071 42.4761 60.2471 43.6224C60.2553 43.8559 60.228 43.9688 60.2182 44.2038L60.2446 46.1767C59.3998 46.284 57.0969 46.1668 55.9958 46.2016C55.5075 46.217 55.0117 46.1757 54.5153 46.1652C54.2276 46.1591 54.1474 46.1974 53.8402 46.1794C53.5153 46.1604 53.4003 46.1936 53.0981 46.1868L51.0104 46.1575C50.3881 46.1211 49.1731 45.9959 48.6982 46.4353C48.0883 46.9994 48.6187 47.3622 48.6893 47.8942C48.825 48.918 48.4309 49.8985 49.0012 50.6211C49.2998 50.9995 49.7236 51.0355 50.0732 50.7123C50.6818 50.1494 50.169 48.8858 50.4072 47.9674C51.0235 47.889 51.7254 48.0703 52.3659 47.915C52.4488 48.6779 52.3355 50.6851 52.3759 51.638C52.3949 52.0867 52.2212 52.4839 52.544 52.893C52.7588 53.1651 54.0951 53.7959 54.0212 51.7779L54.0308 50.5381C54.0437 49.8216 54.1168 48.636 54.0462 47.985L55.1256 47.9745C55.555 47.9723 55.8458 48.0097 56.273 47.9554C56.3648 48.8011 56.1322 50.1532 56.4855 50.6009C56.8011 51.0009 57.2706 51.0927 57.6915 50.7034C58.1249 50.3026 57.9364 49.8876 57.9541 49.412C57.9684 49.0251 57.9906 48.3689 57.9533 48.0254C58.6757 47.9334 59.4577 48.0876 60.18 47.9958C60.2068 48.242 60.2284 48.6069 60.2172 48.8747L60.1385 55.0716C59.8893 55.2006 58.43 55.1555 58.0432 55.1474L50.2285 55.0752C49.9612 55.0766 48.8997 55.0457 48.7367 55.1966C48.1188 55.768 48.2313 57.0144 49.5542 56.9354L50.5664 56.9216C51.2315 56.9519 51.8476 56.9388 52.5206 56.9329C53.2117 56.9268 53.7978 56.9243 54.4777 56.9042L60.3437 56.889C60.7551 56.883 60.8098 57.023 61.2797 56.9967C62.8865 56.9066 63.3475 56.9756 64.7457 55.6825C65.4745 55.0084 65.7896 54.0582 65.9553 53.158L65.9999 43.2361C65.874 40.6293 63.0514 39.3856 61.366 40.9445L61.3658 40.9443Z" fill="#1D1D1D"/>
<path fill-rule="evenodd" clip-rule="evenodd" d="M24.3273 45.968C21.3199 42.1569 21.6362 36.277 25.4915 32.7112C29.9108 28.6238 37.3376 30.6115 39.2246 37.2365C41.0027 43.4796 36.3527 49.8019 30.2885 49.2861C28.3716 49.1231 26.0757 48.1836 24.3273 45.968ZM24.3697 31.4481C22.7977 32.902 21.6428 34.9879 21.132 36.9383C20.6271 38.8657 20.6608 40.8376 21.0982 42.774C21.9351 46.4785 24.6379 49.3854 28.0384 50.5648C28.7531 50.8128 29.2565 50.8192 29.8305 50.9509C30.3367 51.0671 30.2441 50.9923 30.7032 51.0012C31.7528 51.0215 32.353 50.9687 33.4228 50.6833C37.6496 49.5557 40.863 45.4141 41.183 40.8331L41.1894 39.0091C40.8823 36.1331 40.3031 34.6894 38.4606 32.3545C36.5825 29.9746 33.5493 28.7548 30.7619 28.8258C28.4824 28.8839 26.1265 29.8232 24.3697 31.448L24.3697 31.4481Z" fill="#1D1D1D"/>
<path fill-rule="evenodd" clip-rule="evenodd" d="M26.2356 39.1968C25.9335 39.4763 25.8827 40.1753 26.1409 40.5024C26.4994 40.9568 26.8548 40.7754 27.2665 40.7831L35.1475 40.8704C35.9327 40.8906 36.3915 40.0274 35.8639 39.3589C35.4505 38.835 34.3948 39.1226 33.5267 39.0514L28.6765 39.0031C28.3827 38.9859 28.3451 39 28.0693 39.0095C27.8327 39.0177 27.7022 38.98 27.4651 38.9743C27.1166 38.966 26.5001 38.9521 26.2356 39.1968H26.2356Z" fill="#1D1D1D"/>
<path fill-rule="evenodd" clip-rule="evenodd" d="M26.2911 43.0696C25.9234 43.4097 25.8352 44.076 26.1241 44.4421C26.395 44.7854 27.9936 44.7411 28.4638 44.714L29.6771 44.715C29.9282 44.7137 30.014 44.7476 30.2825 44.7341L34.5278 44.7569C34.8517 44.7641 35.443 44.8903 35.7523 44.6042C36.3017 44.0961 36.3225 42.9688 34.7264 42.9488C34.4554 42.9454 34.3994 42.9816 34.1183 42.9688C32.277 42.8851 29.9706 42.9865 28.1238 42.896C27.8409 42.8821 27.7882 42.923 27.5156 42.9169C27.1918 42.9098 26.6004 42.7836 26.2911 43.0697V43.0696Z" fill="#1D1D1D"/>
<path fill-rule="evenodd" clip-rule="evenodd" d="M26.0946 36.4846C26.573 37.0908 27.4981 36.886 28.4929 36.8777L33.9478 36.9553C34.9334 36.9212 35.3272 37.148 35.9291 36.5912C36.0109 36.5156 36.7358 35.1107 34.6191 35.1362L27.2075 35.0822C25.6461 34.9709 25.9804 36.3399 26.0946 36.4846Z" fill="#1D1D1D"/>
</svg>
